<?xml version="1.0" encoding="utf-8"?>
<!-- Generator: Adobe Illustrator 22.0.0, SVG Export Plug-In . SVG Version: 6.00 Build 0)  -->
<svg version="1.1" id="Layer_1" xmlns="http://www.w3.org/2000/svg" xmlns:xlink="http://www.w3.org/1999/xlink" x="0px" y="0px"
	 viewBox="0 0 120 24" style="enable-background:new 0 0 120 24;" xml:space="preserve">
<style type="text/css">
	.st0{fill:none;}
	.st1{fill:#FFFFFF;}
	.st2{fill:#FF7300;}
</style>
<g>
	<rect y="0" class="st0" width="120" height="24"/>
</g>
<rect x="24.9" y="4.7" class="st1" width="2.7" height="16.8"/>
<polygon class="st1" points="71.3,21.5 63.8,21.5 65,17.4 70.1,17.4 "/>
<polygon class="st1" points="69.6,16 65.5,16 67.6,8.8 "/>
<ellipse class="st2" cx="67.6" cy="5.7" rx="1.4" ry="1.4"/>
<path class="st1" d="M2.7,15.5l0-1v-3.6h3.6V8.4H2.7V4.7H0v3.7v2.5v5.4l0,0.2c0.5,3.2,3.8,5,7.3,5V19C4.6,19,2.7,17.3,2.7,15.5z"/>
<path class="st1" d="M22.7,14c0-0.3-0.1-0.5-0.2-0.8c0,0,0,0,0,0h0c-0.8-2.9-3.4-5-6.5-5c-3.7,0-6.7,3-6.7,6.7s3,6.6,6.7,6.7
	c4.6,0.1,6-3.8,6-3.8l-3.3,0c0,0-0.7,1-2.8,1c-2.1,0-3.6-1.3-4.2-3.1h10.9C22.8,15.1,22.7,14.5,22.7,14z M16,10.9
	c1.8,0,3,0.9,3.7,2.2l-7.5,0C12.9,11.8,14.2,10.9,16,10.9z"/>
<path class="st1" d="M43.4,14c0-0.3-0.1-0.5-0.2-0.8c0,0,0,0,0,0h0c-0.8-2.9-3.4-5-6.5-5c-3.7,0-6.7,3-6.7,6.7s3,6.6,6.7,6.7
	c4.6,0.1,6-3.8,6-3.8l-3.3,0c0,0-0.7,1-2.8,1c-2.1,0-3.6-1.3-4.2-3.1h10.9C43.5,15.1,43.4,14.5,43.4,14z M36.7,10.9
	c1.8,0,3,0.9,3.7,2.2l-7.5,0C33.6,11.8,34.9,10.9,36.7,10.9z"/>
<path class="st1" d="M119.9,13.9c0-0.3-0.1-0.5-0.2-0.8c0,0,0,0,0,0h0c-0.8-2.9-3.4-5-6.5-5c-3.7,0-6.7,3-6.7,6.7s3,6.6,6.7,6.7
	c4.6,0.1,6-3.8,6-3.8l-3.3,0c0,0-0.7,1-2.8,1c-2.1,0-3.6-1.3-4.2-3.1H120C120,15.1,120,14.5,119.9,13.9z M113.3,10.9
	c1.8,0,3,0.9,3.7,2.2l-7.5,0C110.2,11.8,111.5,10.9,113.3,10.9z"/>
<path class="st1" d="M58.9,15C58.9,14.9,58.9,14.9,58.9,15l0-0.2l0-0.7c-0.1-3.6-3-5.8-6.6-5.8c-1.6,0-3,0.5-4.2,1.5V8.1h-2.7v13.4
	h2.7v-6.7c0-3,1.7-4,4.1-4c2.2,0,3.9,1.2,3.9,4l0,6.7h2.7L58.9,15L58.9,15z"/>
<path class="st1" d="M89.5,14.7c0-3.6-3-6.5-6.6-6.5c-3.6,0-6.6,2.9-6.6,6.5c0,3.6,3,6.5,6.6,6.5c1.4,0,2.7-0.4,3.7-1.1V24h2.8
	C89.4,24,89.5,14.8,89.5,14.7z M82.8,18.7c-2.2,0-4-1.8-4-4s1.8-4,4-4c2.2,0,4,1.8,4,4S85,18.7,82.8,18.7z"/>
<path class="st1" d="M104.8,15.8V8.2h-2.7v7.3c0,0,0,0.5,0,0.5c-0.3,2-1.6,2.9-3.9,2.9c-2.3,0-3.5-0.8-3.8-2.8c0,0,0-0.4,0-0.4V8.2
	h-2.7c0,0,0,7.6,0,7.7c0,3.1,3.2,5.7,6.6,5.7C101.5,21.5,104.7,19.6,104.8,15.8C104.8,15.8,104.8,15.8,104.8,15.8z"/>
<path class="st2" d="M63.9,9.7c-1.1-1-1.8-2.3-1.8-3.7c0-1.4,0.7-2.8,1.8-3.8l0.9,1.1C64,4,63.6,4.9,63.6,6c0,1,0.4,2,1.3,2.7
	L63.9,9.7z"/>
<path class="st2" d="M71.2,9.7l-0.9-1.1C71.1,7.9,71.5,7,71.5,6c0-1-0.5-2-1.3-2.7l0.9-1.1C72.3,3.2,73,4.5,73,6
	C73,7.4,72.3,8.8,71.2,9.7z"/>
<path class="st2" d="M61.7,11.9c-1.6-1.6-2.5-3.7-2.5-5.9c0-2.2,0.9-4.3,2.5-5.9l1,1c-1.3,1.3-2.1,3.1-2.1,4.9
	c0,1.9,0.7,3.6,2.1,4.9L61.7,11.9z"/>
<path class="st2" d="M73.5,11.9l-1-1c1.3-1.3,2.1-3.1,2.1-4.9S73.8,2.3,72.5,1l1-1C75.1,1.6,76,3.7,76,5.9S75.1,10.3,73.5,11.9z"/>
</svg>
