<?xml version="1.0" encoding="utf-8"?>
<!-- Generator: Adobe Illustrator 22.0.0, SVG Export Plug-In . SVG Version: 6.00 Build 0)  -->
<svg version="1.1" id="Layer_1" xmlns="http://www.w3.org/2000/svg" xmlns:xlink="http://www.w3.org/1999/xlink" x="0px" y="0px"
	 viewBox="0 0 18 18" style="enable-background:new 0 0 18 18;" xml:space="preserve">
<style type="text/css">
	.st0{fill:none;}
	.st1{fill:#FFFFFF;}
</style>
<g>
	<rect y="0" class="st0" width="18" height="18"/>
</g>
<g>
	<path class="st1" d="M10.5,15.1c-4.2,0-7.5-3.4-7.5-7.5C2.9,3.4,6.3,0,10.5,0C14.6,0,18,3.4,18,7.5C18,11.7,14.6,15.1,10.5,15.1z
		 M10.5,1.5c-3.3,0-6,2.7-6,6c0,3.3,2.7,6,6,6c3.3,0,6-2.7,6-6C16.5,4.2,13.8,1.5,10.5,1.5z"/>
</g>
<path class="st1" d="M0.8,18c-0.2,0-0.4-0.1-0.5-0.2c-0.3-0.3-0.3-0.8,0-1.1l4.9-4.9c0.3-0.3,0.8-0.3,1.1,0c0.3,0.3,0.3,0.8,0,1.1
	l-4.9,4.9C1.1,17.9,0.9,18,0.8,18z"/>
</svg>
