<?xml version="1.0" encoding="utf-8"?>
<!-- Generator: Adobe Illustrator 22.0.0, SVG Export Plug-In . SVG Version: 6.00 Build 0)  -->
<svg version="1.1" id="Layer_1" xmlns="http://www.w3.org/2000/svg" xmlns:xlink="http://www.w3.org/1999/xlink" x="0px" y="0px"
	 viewBox="0 0 25 16" style="enable-background:new 0 0 25 16;" xml:space="preserve">
<style type="text/css">
	.st0{fill:none;}
	.st1{fill:#FFFFFF;}
	.st2{fill:#FF7B25;}
</style>
<rect class="st0" width="25" height="16"/>
<path class="st1" d="M22,14.6H10.4c-1.2,0-2.3-1-2.3-2.3V3.7c0-1.2,1-2.3,2.3-2.3H22c1.2,0,2.3,1,2.3,2.3v8.6
	C24.3,13.5,23.2,14.6,22,14.6z"/>
<path class="st2" d="M22,15H10.5c-1.5,0-2.7-1.2-2.7-2.7V3.7C7.7,2.2,9,1,10.5,1H22c1.5,0,2.7,1.2,2.7,2.7v8.7
	C24.7,13.8,23.5,15,22,15z M10.5,1.9c-1,0-1.8,0.8-1.8,1.8v8.7c0,1,0.8,1.8,1.8,1.8H22c1,0,1.8-0.8,1.8-1.8V3.7c0-1-0.8-1.8-1.8-1.8
	H10.5z"/>
<path class="st1" d="M7,8.6c0,2.3-1.8,3.1-4.6,4.2c-2.3,1-2.3-9.6,0-8.5C4.8,5.5,7,6.3,7,8.6z"/>
<path class="st2" d="M2.1,13.3c-0.4,0-0.7-0.2-1-0.5c-1.2-1.6-1.2-7,0.1-8.5C1.6,3.8,2.1,3.7,2.6,4l0.7,0.3c2.1,1,4.2,1.9,4.2,4.3
	c0,2.6-2.1,3.5-4.9,4.6C2.5,13.3,2.3,13.3,2.1,13.3z M2.1,4.7c-0.1,0-0.1,0-0.2,0.1c-1,1.2-1,6.2,0,7.4c0.2,0.2,0.3,0.2,0.4,0.2
	c2.9-1.2,4.3-1.9,4.3-3.8C6.6,6.8,5,6,2.9,5.1L2.2,4.7C2.2,4.7,2.2,4.7,2.1,4.7z"/>
</svg>
