<?xml version="1.0" encoding="utf-8"?>
<!-- Generator: Adobe Illustrator 22.0.0, SVG Export Plug-In . SVG Version: 6.00 Build 0)  -->
<svg version="1.1" id="Layer_1" xmlns="http://www.w3.org/2000/svg" xmlns:xlink="http://www.w3.org/1999/xlink" x="0px" y="0px"
	 viewBox="0 0 22 28" style="enable-background:new 0 0 22 28;" xml:space="preserve">
<style type="text/css">
	.st0{fill:none;}
	.st1{fill:#FFFFFF;}
	.st2{fill:#FF7B25;}
</style>
<g>
	<rect x="0" class="st0" width="22" height="28"/>
</g>
<polygon class="st1" points="15.9,28 6,28 7.7,22.7 14.3,22.7 "/>
<polygon class="st1" points="13.7,20.9 8.2,20.9 11,11.4 "/>
<ellipse class="st2" cx="11" cy="7.4" rx="1.9" ry="1.9"/>
<path class="st2" d="M6.1,12.6c-1.5-1.2-2.3-3-2.3-4.9c0-1.9,0.9-3.7,2.4-4.9l1.2,1.4C6.3,5.1,5.7,6.4,5.7,7.7
	c0,1.3,0.6,2.6,1.7,3.5L6.1,12.6z"/>
<path class="st2" d="M15.7,12.6l-1.2-1.4c1.1-0.9,1.7-2.2,1.7-3.5c0-1.3-0.6-2.6-1.7-3.5l1.2-1.4c1.5,1.2,2.3,3,2.3,4.9
	C18,9.6,17.2,11.4,15.7,12.6z"/>
<path class="st2" d="M3.6,15.4c-2.2-2.1-3.4-4.8-3.4-7.7c0-2.9,1.2-5.7,3.4-7.7l1.3,1.3C3.1,3,2.1,5.3,2.1,7.7c0,2.4,1,4.7,2.8,6.4
	L3.6,15.4z"/>
<path class="st2" d="M18.7,15.4l-1.3-1.3c1.8-1.7,2.7-4,2.7-6.4s-1-4.7-2.7-6.4L18.7,0C20.8,2.1,22,4.8,22,7.7S20.8,13.4,18.7,15.4z
	"/>
</svg>
